<svg
  viewBox="0 0 29 10"
  xmlns="http://www.w3.org/2000/svg"
  version="1.1"
  >

  <path
    fill="white"
    d="
      M0,0
      L1,0
      3,6
      3,0
      4,0
      4,9
      3,9
      1,3
      1,9
      0,9
      0,0
    "
    />

  <path
    fill="white"
    d="
      M5,0
      L6,0
      6,9
      5,9
      5,0
    "
    />

  <path
    fill="white"
    d="
      M7,0
      L8,0
      10,6
      10,0
      11,0
      11,9
      10,9
      8,3
      8,9
      7,9
      7,0
    "
    />

  <path
    fill="white"
    d="
      M13,0
      L14,0
      14,4
      12,10
      11,10
      13,4
      13,0
    "
    />

  <path
    fill="white"
    d="
      M16,0
      L19,9
      18,9
      16,3
      14,9
      13,9
      16,0
    "
    />

  <path
    fill="white"
    d="
      M17,0
      L21,0
      21,6
      20,9
      17,0

      M18.3333333333333333,1
      20,6
      L20,1
      18.33333333333333333,1
    "
    />

  <path
    fill="white"
    d="
      M22,0
      L24,0
      24,1
      23,1
      23,4
      24,4
      24,5
      23,5
      23,8
      25,8
      25,9
      22,9
      22,0
    "
    />

  <path
    fill="white"
    d="
      M25,0
      L26,0
      26,6
      28,0
      29,0
      26,9
      25,6
      25,0
    "
    />
</svg>
