<?xml version="1.0" standalone="no"?>
<!DOCTYPE svg PUBLIC "-//W3C//DTD SVG 20010904//EN"
 "http://www.w3.org/TR/2001/REC-SVG-20010904/DTD/svg10.dtd">
<svg version="1.0" xmlns="http://www.w3.org/2000/svg"
 width="100.000000pt" height="100.000000pt" viewBox="0 0 100.000000 100.000000"
 preserveAspectRatio="xMidYMid meet">
<metadata>
Created by potrace 1.14, written by Peter Selinger 2001-2017
</metadata>
<g transform="translate(0.000000,100.000000) scale(0.100000,-0.100000)"
fill="#000000" stroke="none">
<path d="M40 501 l0 -399 45 1 45 0 0 261 0 261 87 -262 87 -262 43 1 c37 0
43 4 44 22 1 11 1 97 1 190 0 92 3 164 7 160 4 -5 33 -89 65 -187 32 -97 60
-177 61 -177 2 0 23 57 46 128 l43 127 0 268 1 267 -177 0 c-98 0 -178 -1
-178 -2 0 -2 10 -28 21 -58 20 -49 22 -76 23 -257 1 -112 -1 -199 -5 -195 -3
4 -43 121 -88 260 l-82 252 -45 0 -44 0 0 -399z m486 98 c0 -114 -3 -205 -7
-201 -4 4 -35 93 -69 199 -47 142 -60 195 -53 205 8 9 31 12 70 10 l59 -4 0
-209z"/>
<path d="M649 888 c0 -7 -1 -128 -1 -268 l0 -255 42 -130 c24 -72 45 -123 48
-115 3 8 60 179 128 380 67 201 125 373 129 383 6 15 1 17 -38 17 l-44 0 -26
-72 c-14 -40 -51 -149 -82 -243 -31 -93 -59 -175 -63 -182 -4 -7 -7 102 -7
242 l0 255 -42 0 c-27 0 -43 -5 -44 -12z"/>
</g>
</svg>
